<svg class="svg-icon" style="width: 1em; height: 1em;vertical-align: middle;fill: currentColor;overflow: hidden;" viewBox="0 0 1024 1024" version="1.1" xmlns="http://www.w3.org/2000/svg"><path d="M938.666667 313.6H85.333333c-17.066667 0-32-14.933333-32-32s14.933333-32 32-32h853.333334c17.066667 0 32 14.933333 32 32s-14.933333 32-32 32zM413.866667 789.333333c-17.066667 0-32-14.933333-32-32V424.533333c0-17.066667 14.933333-32 32-32s32 14.933333 32 32v332.8c0 17.066667-12.8 32-32 32zM622.933333 789.333333c-17.066667 0-32-14.933333-32-32V424.533333c0-17.066667 14.933333-32 32-32s32 14.933333 32 32v332.8c0 17.066667-14.933333 32-32 32z"  /><path d="M753.066667 936.533333h-469.333334c-53.333333 0-96-42.666667-96-96V386.133333c0-17.066667 14.933333-32 32-32s32 14.933333 32 32v456.533334c0 17.066667 14.933333 32 32 32h469.333334c17.066667 0 32-14.933333 32-32V386.133333c0-17.066667 14.933333-32 32-32s32 14.933333 32 32v456.533334c0 51.2-42.666667 93.866667-96 93.866666z"  /><path d="M753.066667 288c-17.066667 0-32-14.933333-32-32 0-55.466667-44.8-100.266667-100.266667-100.266667h-206.933333c-55.466667 0-100.266667 44.8-100.266667 100.266667 0 17.066667-14.933333 32-32 32s-32-14.933333-32-32c0-89.6 72.533333-164.266667 164.266667-164.266667h206.933333c89.6 0 164.266667 72.533333 164.266667 164.266667 0 17.066667-14.933333 32-32 32z"  /></svg>